<?xml version="1.0" encoding="UTF-8"?>
<svg id="Capa_2" data-name="Capa 2" xmlns="http://www.w3.org/2000/svg" viewBox="0 0 657.38 147.71">
  <defs>
    <style>
      .cls-1 {
        fill: #bce1f6;
      }

      .cls-2 {
        fill: #0b2b3f;
      }

      .cls-3 {
        fill: #002e42;
      }
    </style>
  </defs>
  <g id="Capa_1-2" data-name="Capa 1">
    <g>
      <path class="cls-3" d="M48.45,118.34c-7.09,0-13.01-1.2-17.76-3.6-4.75-2.4-8.27-5.92-10.56-10.56-2.29-4.64-3.44-10.39-3.44-17.27v-34.87h-8.51c-2.62,0-4.64-.68-6.06-2.05-1.42-1.36-2.13-3.25-2.13-5.65s.71-4.42,2.13-5.73c1.42-1.31,3.44-1.96,6.06-1.96h8.51v-14.9c0-3.38.9-5.95,2.7-7.69,1.8-1.74,4.34-2.62,7.61-2.62s5.78.87,7.53,2.62c1.74,1.75,2.62,4.31,2.62,7.69v14.9h17.35c2.62,0,4.64.65,6.06,1.96,1.42,1.31,2.13,3.22,2.13,5.73s-.71,4.28-2.13,5.65c-1.42,1.37-3.44,2.05-6.06,2.05h-17.35v33.72c0,5.24,1.15,9.17,3.44,11.79,2.29,2.62,6,3.93,11.13,3.93,1.85,0,3.49-.16,4.91-.49,1.42-.33,2.67-.54,3.76-.65,1.31-.11,2.4.3,3.27,1.23.87.93,1.31,2.81,1.31,5.65,0,2.18-.36,4.12-1.06,5.81-.71,1.69-1.99,2.86-3.85,3.52-1.42.43-3.27.84-5.57,1.23-2.29.38-4.31.57-6.06.57Z"/>
      <path class="cls-3" d="M85.11,118.02c-3.38,0-5.97-.9-7.78-2.7-1.8-1.8-2.7-4.39-2.7-7.78v-61.87c0-3.38.87-5.95,2.62-7.69,1.74-1.74,4.2-2.62,7.37-2.62s5.62.87,7.37,2.62c1.74,1.75,2.62,4.31,2.62,7.69v10.31h-1.64c1.53-6.55,4.53-11.51,9-14.89,4.47-3.38,10.42-5.4,17.84-6.06,2.29-.22,4.12.35,5.48,1.72,1.36,1.37,2.15,3.47,2.37,6.3.22,2.73-.41,4.94-1.88,6.63-1.47,1.69-3.68,2.7-6.63,3.03l-3.6.33c-6.66.65-11.68,2.7-15.06,6.14-3.38,3.44-5.07,8.27-5.07,14.49v33.88c0,3.38-.87,5.98-2.62,7.78-1.75,1.8-4.31,2.7-7.69,2.7Z"/>
      <path class="cls-3" d="M164.34,118.34c-5.78,0-10.94-1.12-15.47-3.36-4.53-2.23-8.08-5.26-10.64-9.08-2.57-3.82-3.85-8.13-3.85-12.93,0-5.89,1.53-10.56,4.58-14,3.05-3.44,8.02-5.92,14.9-7.45,6.88-1.53,16.1-2.29,27.66-2.29h8.18v11.79h-8.02c-6.77,0-12.17.33-16.2.98-4.04.65-6.9,1.77-8.59,3.36-1.69,1.58-2.54,3.79-2.54,6.63,0,3.6,1.25,6.55,3.76,8.84,2.51,2.29,6,3.44,10.48,3.44,3.6,0,6.79-.84,9.58-2.54,2.78-1.69,4.99-4.01,6.63-6.96,1.64-2.95,2.46-6.33,2.46-10.15v-18.82c0-5.46-1.2-9.38-3.6-11.79-2.4-2.4-6.44-3.6-12.11-3.6-3.17,0-6.58.38-10.23,1.15-3.66.77-7.5,2.07-11.54,3.93-2.07.98-3.9,1.26-5.48.82-1.58-.43-2.81-1.34-3.68-2.7-.87-1.36-1.31-2.86-1.31-4.5s.43-3.24,1.31-4.83c.87-1.58,2.35-2.75,4.42-3.52,5.02-2.07,9.85-3.55,14.49-4.42,4.64-.87,8.86-1.31,12.69-1.31,7.86,0,14.32,1.2,19.4,3.6,5.07,2.4,8.86,6.03,11.38,10.88,2.51,4.86,3.76,11.11,3.76,18.74v39.28c0,3.38-.82,5.98-2.46,7.78-1.64,1.8-3.98,2.7-7.04,2.7s-5.43-.9-7.12-2.7c-1.69-1.8-2.54-4.39-2.54-7.78v-7.86h1.31c-.76,3.82-2.27,7.12-4.5,9.9-2.24,2.78-5.05,4.94-8.43,6.47-3.38,1.53-7.26,2.29-11.62,2.29Z"/>
      <path class="cls-3" d="M273.68,118.34c-6.77,0-12.69-1.69-17.76-5.07-5.07-3.38-8.43-7.91-10.07-13.58l1.8-4.09v11.95c0,3.38-.87,5.98-2.62,7.78-1.75,1.8-4.2,2.7-7.37,2.7s-5.78-.9-7.53-2.7c-1.75-1.8-2.62-4.39-2.62-7.78V10.31c0-3.38.87-5.95,2.62-7.69,1.74-1.74,4.26-2.62,7.53-2.62s5.81.87,7.61,2.62c1.8,1.75,2.7,4.31,2.7,7.69v42.56h-1.96c1.74-5.35,5.13-9.66,10.15-12.93,5.02-3.27,10.86-4.91,17.51-4.91,7.09,0,13.26,1.69,18.5,5.07,5.24,3.38,9.33,8.16,12.28,14.32,2.95,6.17,4.42,13.56,4.42,22.18s-1.47,15.91-4.42,22.18c-2.95,6.28-7.07,11.11-12.36,14.49-5.29,3.38-11.43,5.07-18.41,5.07ZM267.95,102.79c4.04,0,7.58-.98,10.64-2.95,3.05-1.96,5.43-4.88,7.12-8.76,1.69-3.87,2.54-8.7,2.54-14.49,0-8.73-1.86-15.25-5.57-19.56-3.71-4.31-8.62-6.47-14.73-6.47-4.04,0-7.59.96-10.64,2.86-3.06,1.91-5.43,4.8-7.12,8.67-1.69,3.87-2.54,8.7-2.54,14.49,0,8.62,1.85,15.14,5.56,19.56,3.71,4.42,8.62,6.63,14.73,6.63Z"/>
      <path class="cls-3" d="M352.08,118.34c-5.78,0-10.94-1.12-15.47-3.36-4.53-2.23-8.08-5.26-10.64-9.08-2.57-3.82-3.85-8.13-3.85-12.93,0-5.89,1.53-10.56,4.58-14,3.05-3.44,8.02-5.92,14.9-7.45,6.88-1.53,16.1-2.29,27.66-2.29h8.18v11.79h-8.02c-6.77,0-12.17.33-16.2.98-4.04.65-6.9,1.77-8.59,3.36-1.69,1.58-2.54,3.79-2.54,6.63,0,3.6,1.25,6.55,3.76,8.84,2.51,2.29,6,3.44,10.48,3.44,3.6,0,6.79-.84,9.58-2.54,2.78-1.69,4.99-4.01,6.63-6.96,1.64-2.95,2.46-6.33,2.46-10.15v-18.82c0-5.46-1.2-9.38-3.6-11.79-2.4-2.4-6.44-3.6-12.11-3.6-3.17,0-6.58.38-10.23,1.15-3.66.77-7.5,2.07-11.54,3.93-2.07.98-3.9,1.26-5.48.82-1.58-.43-2.81-1.34-3.68-2.7-.87-1.36-1.31-2.86-1.31-4.5s.43-3.24,1.31-4.83c.87-1.58,2.35-2.75,4.42-3.52,5.02-2.07,9.85-3.55,14.49-4.42,4.64-.87,8.86-1.31,12.69-1.31,7.86,0,14.32,1.2,19.4,3.6,5.07,2.4,8.86,6.03,11.38,10.88,2.51,4.86,3.76,11.11,3.76,18.74v39.28c0,3.38-.82,5.98-2.46,7.78-1.64,1.8-3.98,2.7-7.04,2.7s-5.43-.9-7.12-2.7c-1.69-1.8-2.54-4.39-2.54-7.78v-7.86h1.31c-.76,3.82-2.27,7.12-4.5,9.9-2.24,2.78-5.05,4.94-8.43,6.47-3.38,1.53-7.26,2.29-11.62,2.29Z"/>
      <path class="cls-3" d="M467.81,117.85c-3.27,0-5.78-.98-7.53-2.95-1.75-1.96-2.62-4.69-2.62-8.18v-60.07c0-3.6.87-6.36,2.62-8.27,1.74-1.91,4.26-2.86,7.53-2.86s5.81.96,7.61,2.86c1.8,1.91,2.7,4.67,2.7,8.27v60.07c0,3.49-.87,6.22-2.62,8.18-1.75,1.97-4.31,2.95-7.69,2.95Z"/>
      <path class="cls-3" d="M597.93,118.34c-8.29,0-15.5-1.69-21.61-5.07-6.11-3.38-10.86-8.21-14.24-14.49-3.38-6.27-5.07-13.67-5.07-22.18,0-6.44.95-12.19,2.86-17.27,1.91-5.07,4.66-9.44,8.27-13.09,3.6-3.65,7.91-6.44,12.93-8.35,5.02-1.91,10.64-2.86,16.86-2.86,8.29,0,15.49,1.69,21.61,5.07,6.11,3.38,10.86,8.18,14.24,14.4,3.38,6.22,5.07,13.59,5.07,22.1,0,6.44-.96,12.22-2.86,17.35-1.91,5.13-4.67,9.52-8.27,13.18-3.6,3.66-7.91,6.44-12.93,8.35-5.02,1.91-10.64,2.86-16.86,2.86ZM597.93,102.79c4.04,0,7.58-.98,10.64-2.95,3.05-1.96,5.43-4.88,7.12-8.76,1.69-3.87,2.54-8.7,2.54-14.49,0-8.73-1.86-15.25-5.56-19.56-3.71-4.31-8.62-6.47-14.73-6.47-4.04,0-7.59.96-10.64,2.86-3.06,1.91-5.43,4.8-7.12,8.67-1.69,3.87-2.54,8.7-2.54,14.49,0,8.62,1.85,15.14,5.57,19.56,3.71,4.42,8.62,6.63,14.73,6.63Z"/>
      <path class="cls-1" d="M469.52.2c-3.26-.45-6.31.41-8.71,2.12-3.22,2.3-6.9,3.89-10.85,4.15-1.89.12-3.9.1-6.02-.12-4.07-.42-7.86-2.1-11.3-4.32-2.4-1.55-5.37-2.28-8.54-1.79-5.28.83-9.45,5.2-10.07,10.5-.85,7.34,4.86,13.57,12.03,13.57,2.3,0,4.44-.64,6.27-1.76,2.69-1.64,5.59-2.9,8.71-3.32,2.29-.31,4.8-.46,7.48-.34,4.82.21,9.42,1.83,13.7,4.06,1.67.87,3.57,1.36,5.58,1.36,7.16,0,12.86-6.21,12.03-13.53-.61-5.41-4.93-9.84-10.32-10.58Z"/>
      <path class="cls-3" d="M405.44,147.64c-2.4.22-4.36-.14-5.89-1.06-1.53-.93-2.59-2.1-3.19-3.52-.6-1.42-.79-2.89-.57-4.42.22-1.53.85-2.86,1.88-4.01,1.04-1.15,2.43-1.77,4.17-1.88,4.91-.44,8.48-1.83,10.72-4.17,2.24-2.35,3.36-5.92,3.36-10.72V45.67c0-3.38.9-5.95,2.7-7.69,1.8-1.74,4.34-2.62,7.61-2.62s5.78.87,7.53,2.62c1.74,1.75,2.62,4.31,2.62,7.69v70.38c0,6.98-1.12,12.71-3.36,17.19-2.24,4.47-5.62,7.86-10.15,10.15-4.53,2.29-10.34,3.71-17.43,4.26Z"/>
      <path class="cls-3" d="M536.06,118.34c-7.09,0-13.01-1.2-17.76-3.6-4.75-2.4-8.27-5.92-10.56-10.56-2.29-4.64-3.44-10.39-3.44-17.27v-34.87h-8.51c-2.62,0-4.64-.68-6.06-2.05-1.42-1.36-2.13-3.25-2.13-5.65s.71-4.42,2.13-5.73,3.44-1.96,6.06-1.96h8.51v-14.9c0-3.38.9-5.95,2.7-7.69,1.8-1.74,4.34-2.62,7.61-2.62s5.78.87,7.53,2.62c1.74,1.75,2.62,4.31,2.62,7.69v14.9h17.35c2.62,0,4.64.65,6.06,1.96,1.42,1.31,2.13,3.22,2.13,5.73s-.71,4.28-2.13,5.65c-1.42,1.37-3.44,2.05-6.06,2.05h-17.35v33.72c0,5.24,1.15,9.17,3.44,11.79,2.29,2.62,6,3.93,11.13,3.93,1.85,0,3.49-.16,4.91-.49,1.42-.33,2.67-.54,3.76-.65,1.31-.11,2.4.3,3.27,1.23.87.93,1.31,2.81,1.31,5.65,0,2.18-.36,4.12-1.06,5.81-.71,1.69-1.99,2.86-3.85,3.52-1.42.43-3.27.84-5.57,1.23-2.29.38-4.31.57-6.06.57Z"/>
      <circle class="cls-1" cx="630.6" cy="46.1" r="26.78"/>
      <g>
        <path class="cls-2" d="M612.6,56.28v-20.79h5.88v20.79h-5.88ZM614.83,48.5l.03-5.17h13.58v5.17h-13.61ZM625.2,56.28v-20.79h5.88v20.79h-5.88Z"/>
        <path class="cls-2" d="M635.27,56.28v-20.79h9.59c1.41,0,2.66.29,3.77.86s1.98,1.36,2.6,2.35c.62.99.94,2.13.94,3.42,0,1.39-.31,2.61-.94,3.68-.62,1.07-1.49,1.91-2.6,2.51-1.11.6-2.37.91-3.77.91h-4.07v7.07h-5.53ZM640.79,45h3.27c.51,0,.95-.1,1.29-.31.35-.21.61-.49.8-.86.19-.37.28-.8.28-1.29s-.1-.89-.3-1.23c-.2-.35-.49-.61-.88-.8-.39-.19-.87-.28-1.44-.28h-3.03v4.78ZM646.41,56.28l-5.29-9.39,6.03-.74,5.88,10.13h-6.62Z"/>
      </g>
    </g>
  </g>
</svg>